<svg width="252" height="70" viewBox="0 0 252 70" fill="none" xmlns="http://www.w3.org/2000/svg">
<rect width="252" height="70" rx="11" fill="white"/>
<path d="M100.033 32.6229L107.355 45.3675H102.557L97.8087 36.6212L93.1107 45.3675H88.3127L95.6096 32.6979L88.8125 20.8779H93.6105L97.8337 28.6996L102.032 20.8779H106.83L100.033 32.6229ZM115.726 50.5403L111.703 52.3895V27.4751H115.726V28.8495C116.809 27.6667 118.267 27.0753 120.099 27.0753C122.498 27.0753 124.406 27.8999 125.822 29.5492C127.221 31.1985 127.921 33.4976 127.921 36.4463C127.921 39.3118 127.196 41.5858 125.747 43.2684C124.281 44.951 122.407 45.7923 120.124 45.7923C118.258 45.7923 116.792 45.1676 115.726 43.9181V50.5403ZM119.524 41.944C120.907 41.944 121.973 41.4692 122.723 40.5196C123.489 39.57 123.873 38.2122 123.873 36.4463C123.873 34.747 123.489 33.3893 122.723 32.373C121.973 31.3735 120.899 30.8737 119.499 30.8737C117.817 30.8737 116.559 31.4734 115.726 32.6729V40.1447C116.559 41.3442 117.825 41.944 119.524 41.944ZM149.087 35.5217C149.087 36.5546 149.045 37.3709 148.962 37.9707H136.767C137.034 39.2868 137.558 40.3197 138.341 41.0694C139.124 41.8357 140.132 42.2189 141.365 42.2189C142.931 42.2189 144.247 41.6358 145.314 40.4696L147.737 43.0185C146.055 44.8677 143.914 45.7923 141.315 45.7923C138.683 45.7923 136.601 44.9344 135.068 43.2184C133.552 41.5192 132.794 39.2451 132.794 36.3963C132.794 33.5142 133.56 31.2402 135.093 29.5742C136.642 27.9083 138.716 27.0753 141.315 27.0753C143.614 27.0753 145.48 27.7917 146.913 29.2244C148.362 30.6571 149.087 32.7562 149.087 35.5217ZM136.742 34.5471H145.139C145.022 33.2477 144.605 32.2648 143.889 31.5984C143.189 30.932 142.331 30.5988 141.315 30.5988C140.032 30.5988 139.008 30.9487 138.242 31.6484C137.459 32.3481 136.959 33.3143 136.742 34.5471ZM163.756 27.0753C165.705 27.0753 167.296 27.6584 168.529 28.8246C169.745 30.0074 170.353 31.8816 170.353 34.4472V45.3675H166.33V35.2968C166.33 33.7475 165.996 32.6229 165.33 31.9232C164.647 31.2235 163.747 30.8737 162.631 30.8737C159.999 30.8737 158.683 32.3231 158.683 35.2218V45.3675H154.66V27.4751H158.358V29.6992C158.708 28.9995 159.391 28.3831 160.407 27.85C161.423 27.3335 162.54 27.0753 163.756 27.0753ZM184.147 45.7923C182.631 45.7923 181.232 45.5008 179.949 44.9177C178.666 44.3513 177.641 43.5766 176.875 42.5937L179.499 40.2197C180.965 41.6358 182.581 42.3438 184.347 42.3438C185.213 42.3438 185.93 42.1939 186.496 41.894C187.046 41.5941 187.321 41.1443 187.321 40.5446C187.321 40.1947 187.154 39.8615 186.821 39.545C186.488 39.2285 186.096 38.9619 185.646 38.7453C185.213 38.5454 184.564 38.2705 183.697 37.9207C183.597 37.8707 183.522 37.8291 183.472 37.7957C183.406 37.7791 183.331 37.7541 183.247 37.7208C183.147 37.6875 183.064 37.6541 182.998 37.6208C182.131 37.2543 181.49 36.9711 181.073 36.7712C180.657 36.5713 180.149 36.2964 179.549 35.9465C178.949 35.58 178.516 35.2302 178.25 34.897C177.983 34.5804 177.741 34.1723 177.525 33.6725C177.325 33.156 177.225 32.5896 177.225 31.9732C177.225 30.4572 177.875 29.2577 179.174 28.3747C180.49 27.5084 182.14 27.0753 184.122 27.0753C186.888 27.0753 189.112 28.0166 190.794 29.8991L188.095 32.0982C186.813 31.0319 185.438 30.4988 183.972 30.4988C183.056 30.4988 182.331 30.6321 181.798 30.8987C181.248 31.1652 180.973 31.5401 180.973 32.0232C180.973 32.2564 181.065 32.4897 181.248 32.7229C181.432 32.9395 181.756 33.1727 182.223 33.4226C182.689 33.6558 183.072 33.8391 183.372 33.9724C183.672 34.1056 184.189 34.3139 184.922 34.5971C187.071 35.4467 188.495 36.1464 189.195 36.6962C190.428 37.6625 191.052 38.9286 191.069 40.4946C191.069 42.1606 190.444 43.46 189.195 44.3929C187.945 45.3259 186.263 45.7923 184.147 45.7923ZM213.734 35.5217C213.734 36.5546 213.693 37.3709 213.61 37.9707H201.44C201.69 39.2868 202.206 40.3197 202.989 41.0694C203.772 41.8357 204.78 42.2189 206.013 42.2189C207.579 42.2189 208.895 41.6358 209.961 40.4696L212.385 43.0185C210.702 44.8677 208.57 45.7923 205.988 45.7923C203.339 45.7923 201.256 44.9344 199.74 43.2184C198.208 41.5192 197.441 39.2451 197.441 36.3963C197.441 33.5142 198.208 31.2402 199.74 29.5742C201.29 27.9083 203.372 27.0753 205.988 27.0753C208.27 27.0753 210.136 27.7917 211.585 29.2244C213.018 30.6571 213.734 32.7562 213.734 35.5217ZM201.39 34.5471H209.786C209.67 33.2477 209.261 32.2648 208.562 31.5984C207.845 30.932 206.987 30.5988 205.988 30.5988C204.705 30.5988 203.672 30.9487 202.889 31.6484C202.106 32.3481 201.606 33.3143 201.39 34.5471ZM231.802 27.0753C233.401 27.0753 234.801 27.3835 236 27.9999V34.6221H232.077V30.7987H231.727C229.878 30.7987 228.453 31.2319 227.454 32.0982C226.454 32.9645 225.954 34.2639 225.954 35.9965V41.819H230.952V45.3675H218.158V41.819H221.931V31.0236H218.158V27.4751H225.679V30.3489C226.163 29.3327 226.962 28.533 228.078 27.9499C229.211 27.3668 230.452 27.0753 231.802 27.0753Z" fill="black"/>
<path d="M62.6077 21.5522C61.1897 21.5522 56.0028 21.6503 52.711 22.914V15.2354C52.711 11.2046 42.1261 11 40.0041 11C37.8828 11 27.3003 11.204 27.3003 15.2354V32.1813C27.3003 32.427 27.3433 32.6576 27.4159 32.8749C23.9049 32.9796 16 33.6018 16 37.0867V54.032C16 58.0628 26.5819 58.2674 28.7038 58.2674C30.8258 58.2674 41.4089 58.0628 41.4089 54.032V47.6892C43.5925 47.6202 47.3226 47.3442 49.9027 46.354V54.032C49.9027 58.0628 60.4858 58.2674 62.6077 58.2674C64.7297 58.2674 75.3127 58.0628 75.3127 54.032V37.0867V37.0837V31.4375V31.4351V25.7876C75.3127 21.7562 64.7297 21.5522 62.6077 21.5522ZM40.0047 13.8252C45.0015 13.8252 48.2801 14.6296 49.4996 15.2354C48.2801 15.8406 45.0015 16.6456 40.0047 16.6456C35.0097 16.6456 31.7306 15.8413 30.5123 15.2354C31.7306 14.6296 35.0097 13.8252 40.0047 13.8252ZM28.7038 35.6765C33.7006 35.6765 36.9779 36.4827 38.1975 37.0867C36.9779 37.6938 33.7006 38.4963 28.7038 38.4963C23.7088 38.4963 20.4297 37.6938 19.2114 37.0867C20.4297 36.4827 23.7088 35.6765 28.7038 35.6765ZM38.5836 53.7947C37.8525 54.4018 34.39 55.4422 28.7038 55.4422C23.0177 55.4422 19.5563 54.4018 18.8252 53.7947V51.2618C22.1177 52.5195 27.2882 52.6164 28.7038 52.6164C30.1195 52.6164 35.2912 52.5195 38.5836 51.2618V53.7947ZM38.5836 48.1443C37.8525 48.7513 34.39 49.7917 28.7038 49.7917C23.0177 49.7917 19.5563 48.7513 18.8252 48.1443V45.6114C22.1177 46.8691 27.2882 46.9659 28.7038 46.9659C30.1195 46.9659 35.2912 46.8691 38.5836 45.6114V48.1443ZM38.5836 42.4939C37.8525 43.1009 34.39 44.1413 28.7038 44.1413C23.0177 44.1413 19.5563 43.1009 18.8252 42.4939V39.9664C22.1177 41.2247 27.2882 41.3209 28.7038 41.3209C30.1195 41.3209 35.2912 41.2247 38.5836 39.9664V42.4939ZM49.8857 43.2449C49.2176 43.7963 46.2477 44.7042 41.4089 44.8591V42.0393C43.5889 41.9703 47.3062 41.6974 49.8857 40.7127V43.2449ZM49.8857 37.5945C49.2176 38.1459 46.2477 39.0537 41.4089 39.2087V37.0867C41.4089 36.841 41.3665 36.6122 41.2933 36.3937C43.4533 36.3308 47.2596 36.0627 49.8863 35.0616L49.8857 37.5945ZM49.8857 31.9441C49.1546 32.5493 45.6909 33.5909 40.0041 33.5909C34.318 33.5909 30.8566 32.5493 30.1255 31.9441V29.4112C33.418 30.6682 38.5885 30.7657 40.0041 30.7657C41.4197 30.7657 46.5908 30.6676 49.8857 29.4112V31.9441ZM49.8857 26.2936C49.1546 26.8988 45.6909 27.9404 40.0041 27.9404C34.318 27.9404 30.8566 26.8988 30.1255 26.2936V23.7607C33.418 25.0178 38.5885 25.1152 40.0041 25.1152C41.4197 25.1152 46.5908 25.0172 49.8857 23.7607V26.2936ZM49.8857 20.6432C49.1546 21.2484 45.6909 22.29 40.0041 22.29C34.318 22.29 30.8566 21.2484 30.1255 20.6432V18.1157C33.418 19.3722 38.5885 19.4702 40.0041 19.4702C41.4197 19.4702 46.5908 19.3722 49.8857 18.1157V20.6432ZM62.6077 24.3774C67.6045 24.3774 70.8818 25.1818 72.1014 25.787C70.8818 26.3929 67.6045 27.1972 62.6077 27.1972C57.6109 27.1972 54.3336 26.3929 53.114 25.787C54.3336 25.1812 57.6109 24.3774 62.6077 24.3774ZM72.4875 53.7947C71.7564 54.4018 68.2939 55.4422 62.6077 55.4422C56.9216 55.4422 53.459 54.4018 52.7279 53.7947V51.2618C56.0222 52.5195 61.1921 52.6164 62.6077 52.6164C64.0234 52.6164 69.1932 52.5195 72.4875 51.2618V53.7947ZM72.4875 48.1443C71.7564 48.7513 68.2939 49.7917 62.6077 49.7917C56.9216 49.7917 53.459 48.7513 52.7279 48.1443V45.6114C56.0222 46.8691 61.1921 46.9659 62.6077 46.9659C64.0234 46.9659 69.1932 46.8691 72.4875 45.6114V48.1443ZM72.4875 42.4939C71.7564 43.1009 68.2939 44.1413 62.6077 44.1413C56.9216 44.1413 53.459 43.1009 52.7279 42.4939V39.961C56.0222 41.2186 61.1921 41.3155 62.6077 41.3155C64.0234 41.3155 69.1932 41.2186 72.4875 39.961V42.4939ZM72.4875 36.8434C71.7564 37.4505 68.2939 38.4909 62.6077 38.4909C56.9216 38.4909 53.459 37.4505 52.7279 36.8434V34.3117C56.0222 35.5682 61.1921 35.665 62.6077 35.665C64.0234 35.665 69.1932 35.5682 72.4875 34.3117V36.8434ZM72.4875 31.1948C71.7564 31.8 68.2939 32.8416 62.6077 32.8416C56.9216 32.8416 53.459 31.8 52.7279 31.1948V28.6673C56.0222 29.9244 61.1921 30.0218 62.6077 30.0218C64.0234 30.0218 69.1932 29.9238 72.4875 28.6673V31.1948Z" fill="url(#paint0_linear_1_10)"/>
<defs>
<linearGradient id="paint0_linear_1_10" x1="16" y1="11" x2="75" y2="58" gradientUnits="userSpaceOnUse">
<stop stop-color="#0076DD"/>
<stop offset="1" stop-color="#00CDE9"/>
</linearGradient>
</defs>
</svg>
