<svg xmlns="http://www.w3.org/2000/svg" class="iconLeft" viewBox="0 0 300 300"><rect width="300" height="300" x="0" y="0" fill="transparent" class="logo-background-square"/><g id="04b3c42d-26eb-48cf-9a5a-5b0d8ddd3ec1" fill="#000"><path d="M5.19 8.65L8.12 13.75L6.20 13.75L4.30 10.25L2.42 13.75L0.50 13.75L3.42 8.68L0.70 3.95L2.62 3.95L4.31 7.08L5.99 3.95L7.91 3.95L5.19 8.65ZM11.47 15.82L9.86 16.56L9.86 6.59L11.47 6.59L11.47 7.14L11.47 7.14Q12.12 6.43 13.22 6.43L13.22 6.43L13.22 6.43Q14.66 6.43 15.51 7.42L15.51 7.42L15.51 7.42Q16.35 8.41 16.35 10.18L16.35 10.18L16.35 10.18Q16.35 11.90 15.48 12.91L15.48 12.91L15.48 12.91Q14.60 13.92 13.23 13.92L13.23 13.92L13.23 13.92Q12.11 13.92 11.47 13.17L11.47 13.17L11.47 15.82ZM12.99 12.38L12.99 12.38L12.99 12.38Q13.82 12.38 14.27 11.81L14.27 11.81L14.27 11.81Q14.73 11.24 14.73 10.18L14.73 10.18L14.73 10.18Q14.73 9.16 14.27 8.55L14.27 8.55L14.27 8.55Q13.82 7.95 12.98 7.95L12.98 7.95L12.98 7.95Q11.97 7.95 11.47 8.67L11.47 8.67L11.47 11.66L11.47 11.66Q11.97 12.38 12.99 12.38ZM24.82 9.81L24.82 9.81L24.82 9.81Q24.82 10.43 24.77 10.79L24.77 10.79L19.89 10.79L19.89 10.79Q20.05 11.58 20.52 12.03L20.52 12.03L20.52 12.03Q20.99 12.49 21.73 12.49L21.73 12.49L21.73 12.49Q22.67 12.49 23.31 11.79L23.31 11.79L24.28 12.81L24.28 12.81Q23.27 13.92 21.71 13.92L21.71 13.92L21.71 13.92Q20.13 13.92 19.21 12.89L19.21 12.89L19.21 12.89Q18.30 11.87 18.30 10.16L18.30 10.16L18.30 10.16Q18.30 8.43 19.22 7.43L19.22 7.43L19.22 7.43Q20.15 6.43 21.71 6.43L21.71 6.43L21.71 6.43Q23.09 6.43 23.95 7.29L23.95 7.29L23.95 7.29Q24.82 8.15 24.82 9.81ZM19.88 9.42L19.88 9.42L23.24 9.42L23.24 9.42Q23.17 8.64 22.74 8.24L22.74 8.24L22.74 8.24Q22.32 7.84 21.71 7.84L21.71 7.84L21.71 7.84Q20.94 7.84 20.48 8.26L20.48 8.26L20.48 8.26Q20.01 8.68 19.88 9.42ZM30.69 6.43L30.69 6.43L30.69 6.43Q31.86 6.43 32.60 7.13L32.60 7.13L32.60 7.13Q33.33 7.84 33.33 9.38L33.33 9.38L33.33 13.75L31.72 13.75L31.72 9.72L31.72 9.72Q31.72 8.79 31.32 8.37L31.32 8.37L31.32 8.37Q30.91 7.95 30.24 7.95L30.24 7.95L30.24 7.95Q28.66 7.95 28.66 9.69L28.66 9.69L28.66 13.75L27.05 13.75L27.05 6.59L28.53 6.59L28.53 7.48L28.53 7.48Q28.74 7.06 29.35 6.74L29.35 6.74L29.35 6.74Q29.96 6.43 30.69 6.43ZM38.85 13.92L38.85 13.92L38.85 13.92Q37.94 13.92 37.17 13.57L37.17 13.57L37.17 13.57Q36.40 13.23 35.94 12.64L35.94 12.64L36.99 11.69L36.99 11.69Q37.87 12.54 38.93 12.54L38.93 12.54L38.93 12.54Q39.45 12.54 39.79 12.36L39.79 12.36L39.79 12.36Q40.12 12.18 40.12 11.82L40.12 11.82L40.12 11.82Q40.12 11.61 39.92 11.42L39.92 11.42L39.92 11.42Q39.72 11.23 39.45 11.10L39.45 11.10L39.45 11.10Q39.19 10.98 38.67 10.77L38.67 10.77L38.67 10.77Q38.61 10.74 38.58 10.72L38.58 10.72L38.58 10.72Q38.54 10.71 38.49 10.69L38.49 10.69L38.49 10.69Q38.43 10.67 38.39 10.65L38.39 10.65L38.39 10.65Q37.87 10.43 37.62 10.31L37.62 10.31L37.62 10.31Q37.37 10.19 37.01 9.98L37.01 9.98L37.01 9.98Q36.65 9.76 36.49 9.56L36.49 9.56L36.49 9.56Q36.33 9.37 36.20 9.07L36.20 9.07L36.20 9.07Q36.08 8.76 36.08 8.39L36.08 8.39L36.08 8.39Q36.08 7.48 36.86 6.95L36.86 6.95L36.86 6.95Q37.65 6.43 38.84 6.43L38.84 6.43L38.84 6.43Q40.50 6.43 41.51 7.56L41.51 7.56L40.43 8.44L40.43 8.44Q39.66 7.80 38.78 7.80L38.78 7.80L38.78 7.80Q38.23 7.80 37.91 7.96L37.91 7.96L37.91 7.96Q37.58 8.12 37.58 8.41L37.58 8.41L37.58 8.41Q37.58 8.55 37.69 8.69L37.69 8.69L37.69 8.69Q37.80 8.82 38.08 8.97L38.08 8.97L38.08 8.97Q38.36 9.11 38.54 9.19L38.54 9.19L38.54 9.19Q38.72 9.27 39.16 9.44L39.16 9.44L39.16 9.44Q40.45 9.95 40.87 10.28L40.87 10.28L40.87 10.28Q41.61 10.86 41.62 11.80L41.62 11.80L41.62 11.80Q41.62 12.80 40.87 13.36L40.87 13.36L40.87 13.36Q40.12 13.92 38.85 13.92ZM50.69 9.81L50.69 9.81L50.69 9.81Q50.69 10.43 50.64 10.79L50.64 10.79L45.77 10.79L45.77 10.79Q45.92 11.58 46.39 12.03L46.39 12.03L46.39 12.03Q46.86 12.49 47.60 12.49L47.60 12.49L47.60 12.49Q48.54 12.49 49.18 11.79L49.18 11.79L50.15 12.81L50.15 12.81Q49.14 13.92 47.59 13.92L47.59 13.92L47.59 13.92Q46.00 13.92 45.09 12.89L45.09 12.89L45.09 12.89Q44.17 11.87 44.17 10.16L44.17 10.16L44.17 10.16Q44.17 8.43 45.09 7.43L45.09 7.43L45.09 7.43Q46.02 6.43 47.59 6.43L47.59 6.43L47.59 6.43Q48.96 6.43 49.83 7.29L49.83 7.29L49.83 7.29Q50.69 8.15 50.69 9.81ZM45.75 9.42L45.75 9.42L49.11 9.42L49.11 9.42Q49.04 8.64 48.62 8.24L48.62 8.24L48.62 8.24Q48.19 7.84 47.59 7.84L47.59 7.84L47.59 7.84Q46.82 7.84 46.35 8.26L46.35 8.26L46.35 8.26Q45.88 8.68 45.75 9.42ZM57.92 6.43L57.92 6.43L57.92 6.43Q58.88 6.43 59.60 6.80L59.60 6.80L59.60 9.45L58.03 9.45L58.03 7.92L57.89 7.92L57.89 7.92Q56.78 7.92 56.18 8.44L56.18 8.44L56.18 8.44Q55.58 8.96 55.58 10.00L55.58 10.00L55.58 12.33L57.58 12.33L57.58 13.75L52.46 13.75L52.46 12.33L53.97 12.33L53.97 8.01L52.46 8.01L52.46 6.59L55.47 6.59L55.47 7.74L55.47 7.74Q55.76 7.13 56.43 6.78L56.43 6.78L56.43 6.78Q57.11 6.43 57.92 6.43Z" transform="matrix(2.4989384184591876,0,0,2.4989384184591876,111.06327407290985,124.37338682851357)"/></g><defs><linearGradient id="8d838c5e-f199-43e8-adb0-dca58fb50092" x1="0%" x2="100%" y1="0%" y2="0%" gradientTransform="rotate(25)"><stop offset="0%" stop-color="#0076DD" stop-opacity="1"/><stop offset="100%" stop-color="#00CDE9" stop-opacity="1"/></linearGradient></defs><g id="c5126676-f9e0-4e17-806b-633765da8b85" fill="url(#8d838c5e-f199-43e8-adb0-dca58fb50092)" stroke="none" transform="matrix(0.6052320743075452,0,0,0.6052320743075452,39.394767925692456,119.73839455303988)"><path d="M78.008 28.386c-2.343 0-10.913.162-16.352 2.25V17.949c0-6.66-17.489-6.998-20.995-6.998-3.505 0-20.99.337-20.99 6.998v27.999c0 .406.071.787.191 1.146C14.061 47.267 1 48.295 1 54.053v27.998c0 6.66 17.484 6.998 20.99 6.998 3.506 0 20.992-.338 20.992-6.998v-10.48c3.608-.114 9.771-.57 14.034-2.206v12.686c0 6.66 17.486 6.998 20.992 6.998S99 88.711 99 82.051V54.053v-.005-9.329-.004-9.331c0-6.661-17.486-6.998-20.992-6.998zM40.662 15.619c8.256 0 13.673 1.329 15.688 2.33-2.015 1-7.432 2.33-15.688 2.33-8.253 0-13.671-1.329-15.684-2.33 2.013-1.001 7.431-2.33 15.684-2.33zM21.99 51.723c8.256 0 13.671 1.332 15.686 2.33-2.015 1.003-7.43 2.329-15.686 2.329-8.253 0-13.671-1.326-15.684-2.329 2.013-.998 7.431-2.33 15.684-2.33zm16.324 29.936c-1.208 1.003-6.929 2.722-16.324 2.722-9.395 0-15.114-1.719-16.322-2.722v-4.185c5.44 2.078 13.983 2.238 16.322 2.238 2.339 0 10.884-.16 16.324-2.238v4.185zm0-9.336c-1.208 1.003-6.929 2.722-16.324 2.722-9.395 0-15.114-1.719-16.322-2.722v-4.185c5.44 2.078 13.983 2.238 16.322 2.238 2.339 0 10.884-.16 16.324-2.238v4.185zm0-9.336c-1.208 1.003-6.929 2.722-16.324 2.722-9.395 0-15.114-1.719-16.322-2.722v-4.176c5.44 2.079 13.983 2.238 16.322 2.238 2.339 0 10.884-.159 16.324-2.238v4.176zm18.674 1.241c-1.104.911-6.011 2.411-14.006 2.667v-4.659c3.602-.114 9.744-.565 14.006-2.192v4.184zm0-9.336c-1.104.911-6.011 2.411-14.006 2.667v-3.506c0-.406-.07-.784-.191-1.145 3.569-.104 9.858-.547 14.198-2.201v4.185zm0-9.336c-1.208 1-6.931 2.721-16.327 2.721-9.395 0-15.114-1.721-16.322-2.721v-4.185c5.44 2.077 13.983 2.238 16.322 2.238 2.339 0 10.883-.162 16.327-2.238v4.185zm0-9.336c-1.208 1-6.931 2.721-16.327 2.721-9.395 0-15.114-1.721-16.322-2.721v-4.185c5.44 2.077 13.983 2.238 16.322 2.238 2.339 0 10.883-.162 16.327-2.238v4.185zm0-9.336c-1.208 1-6.931 2.721-16.327 2.721-9.395 0-15.114-1.721-16.322-2.721v-4.176c5.44 2.076 13.983 2.238 16.322 2.238 2.339 0 10.883-.162 16.327-2.238v4.176zm21.02 6.17c8.256 0 13.671 1.329 15.686 2.329-2.015 1.001-7.43 2.33-15.686 2.33s-13.671-1.329-15.686-2.33c2.015-1.001 7.43-2.329 15.686-2.329zm16.324 48.605c-1.208 1.003-6.929 2.722-16.324 2.722s-15.116-1.719-16.324-2.722v-4.185c5.443 2.078 13.985 2.238 16.324 2.238s10.881-.16 16.324-2.238v4.185zm0-9.336c-1.208 1.003-6.929 2.722-16.324 2.722s-15.116-1.719-16.324-2.722v-4.185c5.443 2.078 13.985 2.238 16.324 2.238s10.881-.16 16.324-2.238v4.185zm0-9.336c-1.208 1.003-6.929 2.722-16.324 2.722s-15.116-1.719-16.324-2.722v-4.185c5.443 2.078 13.985 2.238 16.324 2.238s10.881-.16 16.324-2.238v4.185zm0-9.336c-1.208 1.003-6.929 2.722-16.324 2.722s-15.116-1.719-16.324-2.722v-4.183c5.443 2.076 13.985 2.236 16.324 2.236s10.881-.16 16.324-2.236v4.183zm0-9.333c-1.208 1-6.929 2.721-16.324 2.721s-15.116-1.721-16.324-2.721v-4.176c5.443 2.077 13.985 2.238 16.324 2.238s10.881-.162 16.324-2.238v4.176z"/></g></svg>